<?xml version="1.0" encoding="UTF-8"?><svg id="TEXT" xmlns="http://www.w3.org/2000/svg" xmlns:xlink="http://www.w3.org/1999/xlink" viewBox="0 0 494.57 129.43"><defs><style>.cls-1{fill:url(#linear-gradient-9);filter:url(#drop-shadow-1);}.cls-1,.cls-2,.cls-3,.cls-4,.cls-5,.cls-6,.cls-7,.cls-8,.cls-9,.cls-10,.cls-11,.cls-12,.cls-13{stroke-width:0px;}.cls-2{fill:url(#linear-gradient);}.cls-3{fill:url(#linear-gradient-6);}.cls-5{fill:url(#linear-gradient-5);}.cls-6{fill:#edb83e;}.cls-7{fill:url(#linear-gradient-2);}.cls-8{fill:url(#linear-gradient-10);filter:url(#drop-shadow-2);}.cls-9{fill:url(#linear-gradient-7);}.cls-10{fill:url(#linear-gradient-3);}.cls-11{fill:url(#linear-gradient-11);filter:url(#drop-shadow-3);}.cls-12{fill:url(#linear-gradient-8);}.cls-13{fill:url(#linear-gradient-4);}</style><linearGradient id="linear-gradient" x1="494.75" y1="155.93" x2="101.39" y2="39.41" gradientUnits="userSpaceOnUse"><stop offset="0" stop-color="#7043b2"/><stop offset="1" stop-color="#08d4fa"/></linearGradient><linearGradient id="linear-gradient-2" x1="498.84" y1="142.14" x2="105.48" y2="25.62" xlink:href="#linear-gradient"/><linearGradient id="linear-gradient-3" x1="499.59" y1="139.61" x2="106.23" y2="23.09" xlink:href="#linear-gradient"/><linearGradient id="linear-gradient-4" x1="508.17" y1="110.64" x2="114.81" y2="-5.88" xlink:href="#linear-gradient"/><linearGradient id="linear-gradient-5" x1="513.55" y1="92.49" x2="120.18" y2="-24.02" xlink:href="#linear-gradient"/><linearGradient id="linear-gradient-6" x1="515.17" y1="87.01" x2="121.81" y2="-29.5" xlink:href="#linear-gradient"/><linearGradient id="linear-gradient-7" x1="503.6" y1="126.08" x2="110.24" y2="9.56" xlink:href="#linear-gradient"/><linearGradient id="linear-gradient-8" x1="56.88" y1="59.17" x2="-36.65" y2="-19.75" xlink:href="#linear-gradient"/><linearGradient id="linear-gradient-9" x1="31.4" y1="82.25" x2="31.23" y2="82.63" gradientUnits="userSpaceOnUse"><stop offset="0" stop-color="#cb55f8"/><stop offset="1" stop-color="#7c55ea"/></linearGradient><filter id="drop-shadow-1" filterUnits="userSpaceOnUse"><feOffset dx="-4" dy="0"/><feGaussianBlur result="blur" stdDeviation="3"/><feFlood flood-color="#000" flood-opacity=".75"/><feComposite in2="blur" operator="in"/><feComposite in="SourceGraphic"/></filter><linearGradient id="linear-gradient-10" x1="101.91" y1="43.76" x2="70.17" y2="114.6" xlink:href="#linear-gradient-9"/><filter id="drop-shadow-2" filterUnits="userSpaceOnUse"><feOffset dx="-3" dy="0"/><feGaussianBlur result="blur-2" stdDeviation="3"/><feFlood flood-color="#000" flood-opacity=".75"/><feComposite in2="blur-2" operator="in"/><feComposite in="SourceGraphic"/></filter><linearGradient id="linear-gradient-11" x1="122.89" y1="1.68" x2="70.69" y2="118.2" xlink:href="#linear-gradient-9"/><filter id="drop-shadow-3" filterUnits="userSpaceOnUse"><feOffset dx="-4" dy="0"/><feGaussianBlur result="blur-3" stdDeviation="3"/><feFlood flood-color="#000" flood-opacity=".75"/><feComposite in2="blur-3" operator="in"/><feComposite in="SourceGraphic"/></filter></defs><path class="cls-2" d="m223.88,99.18h-42.83v-59.64h42.83v7.62h-26.38v18.43h20.38v7.58h-20.38v18.39h26.38v7.62Z"/><path class="cls-7" d="m247.16,99.18h-14V29.3h5.38l8.61,14.54v55.33Z"/><path class="cls-10" d="m304.86,67.03c0,1.96-.32,3.71-.95,5.24s-1.5,2.88-2.59,4.04c-1.09,1.16-2.35,2.14-3.79,2.94s-2.97,1.46-4.6,1.97-3.31.88-5.03,1.1c-1.73.22-3.4.33-5.03.33-2.07,0-4.11-.15-6.13-.43-2.02-.29-4-.75-5.96-1.39.3,1.82.79,3.56,1.45,5.2s1.55,3.08,2.65,4.31,2.46,2.2,4.08,2.92c1.61.72,3.53,1.08,5.74,1.08,1.46,0,2.86-.22,4.18-.66s2.54-1.06,3.64-1.86,2.08-1.75,2.92-2.86c.84-1.1,1.53-2.33,2.05-3.69l6.05,2.24c-.91,2.18-2.16,4.07-3.75,5.65s-3.38,2.9-5.38,3.93c-2,1.04-4.13,1.8-6.38,2.3s-4.48.75-6.69.75c-3.64,0-7.01-.61-10.11-1.84-3.09-1.23-5.76-2.95-7.99-5.16s-3.99-4.85-5.26-7.91c-1.27-3.06-1.91-6.42-1.91-10.06s.64-7,1.91-10.06c1.27-3.06,3.02-5.7,5.26-7.91,2.24-2.21,4.9-3.93,7.99-5.16s6.46-1.84,10.11-1.84c1.77,0,3.58.12,5.43.37s3.64.64,5.38,1.18,3.38,1.24,4.93,2.09c1.55.86,2.89,1.91,4.04,3.17s2.06,2.71,2.73,4.37,1.02,3.55,1.02,5.67Zm-34.5,9.44c1.71.39,3.42.69,5.14.91s3.44.33,5.18.33,3.51-.17,5.07-.52c1.56-.34,2.91-.92,4.06-1.74,1.14-.81,2.05-1.9,2.71-3.25.66-1.35.99-3.04.99-5.05,0-1.63-.22-3.12-.66-4.47-.44-1.35-1.1-2.51-1.97-3.48-.87-.97-1.94-1.72-3.21-2.26s-2.75-.81-4.43-.81c-1.57,0-2.99.29-4.25.87s-2.36,1.36-3.31,2.34c-.95.98-1.77,2.12-2.44,3.42-.68,1.3-1.24,2.65-1.68,4.06s-.76,2.83-.95,4.27c-.19,1.44-.29,2.79-.29,4.06v.66c0,.22.01.44.04.66Z"/><path class="cls-13" d="m412.42,99.18h-14l-11.72-16.77-11.97,16.77h-9.69l18.02-22.03-18.02-25.8h14l11.35,16.24,12.34-16.24h9.69l-18.39,21.45,18.39,26.38Z"/><path class="cls-5" d="m433.58,39.78c0,1.05-.2,2.04-.6,2.98-.4.94-.95,1.75-1.64,2.44-.69.69-1.5,1.24-2.44,1.64s-1.93.6-2.98.6-2.04-.2-2.96-.6-1.73-.95-2.42-1.64c-.69-.69-1.24-1.5-1.64-2.44-.4-.94-.6-1.93-.6-2.98s.2-2.04.6-2.96.95-1.73,1.64-2.42c.69-.69,1.5-1.24,2.42-1.64s1.91-.6,2.96-.6,2.04.2,2.98.6,1.75.95,2.44,1.64c.69.69,1.24,1.5,1.64,2.42s.6,1.91.6,2.96Zm-.62,59.39h-14.04v-47.8h14.04v47.8Z"/><path class="cls-3" d="m492.85,99.18h-14v-5.72c-1.66,2.26-3.65,3.94-5.99,5.03-2.33,1.09-4.89,1.64-7.68,1.64-3.64,0-6.9-.65-9.77-1.95s-5.3-3.07-7.29-5.32c-1.99-2.25-3.51-4.89-4.56-7.93s-1.57-6.3-1.57-9.77.52-6.74,1.57-9.77c1.05-3.04,2.57-5.68,4.56-7.93s4.42-4.02,7.29-5.32c2.87-1.3,6.13-1.95,9.77-1.95,1.85,0,3.61.28,5.28.83,1.67.55,3.2,1.33,4.6,2.34,1.39,1.01,2.62,2.22,3.69,3.64s1.9,3,2.51,4.74l6.21-10.4h5.38v47.84Zm-14.08-24.02c0-1.24-.06-2.55-.19-3.93-.12-1.38-.34-2.75-.64-4.1-.3-1.35-.72-2.64-1.26-3.87-.54-1.23-1.23-2.32-2.07-3.27s-1.86-1.7-3.04-2.26c-1.19-.55-2.57-.83-4.14-.83s-2.94.28-4.1.85-2.15,1.33-2.98,2.28-1.51,2.05-2.05,3.29c-.54,1.24-.96,2.54-1.26,3.89-.3,1.35-.52,2.71-.64,4.08-.12,1.37-.19,2.66-.19,3.87s.06,2.51.19,3.89c.13,1.38.34,2.75.64,4.1s.73,2.65,1.26,3.89c.54,1.24,1.22,2.34,2.05,3.29.83.95,1.82,1.71,2.98,2.28,1.16.57,2.53.85,4.1.85,1.44,0,2.71-.3,3.83-.89,1.12-.59,2.1-1.39,2.94-2.38s1.55-2.13,2.13-3.4,1.05-2.58,1.41-3.93.62-2.7.79-4.04.25-2.56.25-3.67Z"/><path class="cls-9" d="m361.31,63.12c-.8-2.64-2.02-4.91-3.64-6.83s-3.67-3.42-6.13-4.49-5.34-1.62-8.66-1.62c-2.07,0-4,.29-5.78.87-1.78.58-3.4,1.41-4.87,2.49s-2.78,2.38-3.93,3.89c-1.16,1.52-2.13,3.2-2.9,5.05l-6.42-11.14h-5.38v47.84h14.04v-23.98c0-1.05.08-2.24.25-3.56s.44-2.67.81-4.04c.37-1.37.86-2.7,1.45-4,.59-1.3,1.3-2.45,2.13-3.46s1.78-1.82,2.86-2.44,2.31-.93,3.69-.93,2.63.26,3.67.79c1.03.52,1.92,1.22,2.65,2.07.73.86,1.32,1.85,1.76,2.98.44,1.13.79,2.31,1.06,3.54.26,1.23.43,2.46.52,3.69s.12,2.38.12,3.46c0,1.63-.08,3.39-.23,5.28-.15,1.89-.37,3.84-.66,5.84-.29,2-.65,4.02-1.08,6.07-.43,2.04-.91,4.02-1.45,5.94-.27.95-.55,1.88-.85,2.78h10.2c1.32-2.24,2.49-4.58,3.51-7.03,1.41-3.37,2.51-6.81,3.29-10.31.79-3.51,1.18-6.88,1.18-10.11s-.4-6-1.2-8.64Z"/><path class="cls-12" d="m106.79,59.85L52.83,5.89c-2.36-2.36-6.18-2.36-8.54,0L3.48,46.21c-2.36,2.36-2.36,6.18,0,8.54l11.68,11.68,48.31,48.2,43.33-41.18c3.75-3.75,3.75-9.84,0-13.6Z"/><path class="cls-6" d="m68.77,33.64c1.23,1.23,2.44,2.33,3.56,3.26,1.47,1.22,1.2,3.77-.61,5.58l-30.97,30.97c-4.36,4.36-8.53,3.25-11.79-.01h0c-3.26-3.26-4.37-7.42-.01-11.79l30.97-30.97c1.8-1.8,4.36-2.08,5.58-.61.93,1.13,2.04,2.34,3.26,3.56Z"/><path class="cls-1" d="m31.75,82.8c-.3-.23-.59-.48-.86-.76l.82.82.05-.06Z"/><polygon class="cls-8" points="83.85 123.58 125.89 81.45 85.44 41 43.4 83.13 83.85 123.58"/><path class="cls-11" d="m156.4,50.88l-71.46,71.62c-3.75,3.75-9.84,3.75-13.6,0l-40.45-40.45c3.75,3.75,9.84,3.75,13.6,0L115.95,10.43c2.36-2.36,6.18-2.36,8.54,0l31.91,31.91c2.36,2.36,2.36,6.18,0,8.54Z"/><path class="cls-4" d="m480.84,21.43v-9.31h4.13c.83,0,1.46.08,1.89.25.43.17.78.46,1.04.89s.39.89.39,1.4c0,.66-.21,1.22-.64,1.67s-1.09.74-1.98.86c.33.16.57.31.74.46.36.33.7.74,1.02,1.24l1.62,2.53h-1.55l-1.23-1.94c-.36-.56-.66-.99-.89-1.28-.23-.3-.44-.5-.63-.62-.18-.12-.37-.2-.56-.25-.14-.03-.37-.04-.69-.04h-1.43v4.13h-1.23Zm1.23-5.2h2.65c.56,0,1-.06,1.32-.17.32-.12.56-.3.72-.56.17-.26.25-.53.25-.83,0-.44-.16-.8-.48-1.09s-.82-.43-1.51-.43h-2.95v3.08Z"/><path class="cls-4" d="m484.61,25.02c-4.54,0-8.24-3.7-8.24-8.24s3.7-8.24,8.24-8.24,8.24,3.7,8.24,8.24-3.7,8.24-8.24,8.24Zm0-15.48c-3.99,0-7.24,3.25-7.24,7.24s3.25,7.24,7.24,7.24,7.24-3.25,7.24-7.24-3.25-7.24-7.24-7.24Z"/></svg>